<?xml version="1.0" standalone="no"?>
<!DOCTYPE svg PUBLIC "-//W3C//DTD SVG 20010904//EN"
 "http://www.w3.org/TR/2001/REC-SVG-20010904/DTD/svg10.dtd">
<svg version="1.0" xmlns="http://www.w3.org/2000/svg"
 width="1812.000000pt" height="1812.000000pt" viewBox="0 0 1812.000000 1812.000000"
 preserveAspectRatio="xMidYMid meet">
<metadata>
Created by potrace 1.14, written by Peter Selinger 2001-2017
</metadata>
<g transform="translate(0.000000,1812.000000) scale(0.100000,-0.100000)"
fill="#000000" stroke="none">
<path d="M4369 13709 c-236 -65 -403 -285 -400 -529 0 -41 2 -82 4 -90 2 -8 7
-31 11 -50 17 -75 79 -182 144 -246 66 -67 182 -131 272 -152 62 -15 221 -7
275 13 107 39 157 69 226 138 69 68 122 159 145 246 17 70 25 199 12 207 -5 3
-6 10 -2 15 8 14 -24 117 -58 180 -35 67 -116 156 -178 196 -137 89 -297 114
-451 72z"/>
<path d="M2108 13055 c-2 -1 -25 -6 -53 -9 -92 -12 -126 -22 -208 -63 -73 -36
-78 -40 -152 -111 -59 -56 -78 -80 -101 -124 -9 -18 -21 -39 -27 -47 -6 -7
-12 -18 -13 -25 -1 -6 -9 -31 -18 -55 -9 -24 -14 -47 -11 -51 3 -5 2 -11 -3
-14 -9 -5 -15 -51 -14 -121 0 -49 8 -150 12 -150 1 0 3 -9 5 -20 4 -22 11 -38
45 -110 68 -142 196 -256 355 -316 85 -32 241 -41 336 -19 30 6 90 29 135 51
164 78 272 204 329 384 23 72 29 248 11 309 -7 23 -14 46 -16 51 -43 145 -149
278 -286 356 -47 28 -149 64 -206 73 -15 3 -32 7 -38 11 -5 3 -10 2 -10 -3 0
-6 -14 -7 -34 -2 -19 4 -36 6 -38 5z"/>
<path d="M6556 12878 c-125 -28 -263 -137 -319 -252 -29 -58 -32 -69 -46 -158
-19 -115 21 -256 99 -352 58 -72 172 -148 243 -162 12 -2 33 -7 47 -10 44 -9
144 -6 190 6 114 29 239 117 285 200 11 19 24 38 29 41 4 4 19 42 31 85 50
174 7 348 -120 475 -27 27 -57 51 -67 55 -10 3 -18 9 -18 14 0 8 -38 23 -52
21 -5 -1 -8 4 -8 11 0 6 -3 8 -7 5 -3 -4 -11 -3 -17 2 -30 23 -199 35 -270 19z"/>
<path d="M7773 11179 c-13 -4 -23 -6 -23 -2 0 3 -7 0 -15 -7 -8 -7 -15 -9 -15
-5 0 15 -113 -58 -153 -99 -45 -45 -89 -124 -105 -188 -11 -41 -5 -203 8 -215
1 -2 3 -6 4 -10 4 -17 41 -89 56 -107 53 -66 104 -104 185 -137 81 -33 208
-32 285 2 51 23 85 43 101 58 9 9 25 23 35 32 38 32 84 100 84 124 0 8 4 15 8
15 5 0 9 6 10 13 1 19 7 41 13 52 6 11 3 149 -4 175 -37 138 -154 259 -287
295 -40 11 -163 14 -187 4z"/>
<path d="M698 11175 c-2 -2 -25 -5 -53 -9 -49 -5 -151 -32 -170 -44 -5 -4 -12
-7 -15 -7 -20 0 -144 -84 -190 -128 -65 -62 -130 -141 -136 -167 0 -3 -15 -34
-31 -70 -17 -36 -34 -81 -38 -100 -16 -87 -18 -109 -18 -165 -1 -66 8 -138 24
-199 14 -50 57 -146 77 -168 8 -10 12 -18 9 -18 -20 0 137 -160 196 -199 103
-70 220 -110 330 -114 26 -1 47 -6 47 -10 0 -5 5 -5 12 -1 6 4 34 8 62 10 28
1 51 3 51 4 0 1 8 3 19 5 64 12 116 28 116 36 0 5 4 8 8 6 12 -3 82 26 82 35
0 4 5 8 12 8 16 0 113 75 151 117 50 56 51 57 73 89 46 65 95 182 111 264 8
43 10 224 2 235 -4 6 -7 12 -7 15 1 5 -13 78 -17 90 -15 46 -68 154 -80 162
-5 4 -6 8 -1 8 5 0 -1 8 -12 19 -12 10 -22 22 -22 27 0 14 -119 123 -173 157
-56 36 -162 82 -212 92 -68 13 -200 26 -207 20z"/>
<path d="M6608 10083 l-3 -228 -99 -2 c-54 -1 -100 -4 -103 -7 -7 -7 -6 -373
1 -385 3 -5 49 -8 102 -7 59 1 98 -2 100 -9 2 -5 5 -192 7 -415 2 -223 7 -416
11 -430 3 -14 8 -37 11 -51 15 -84 83 -209 147 -272 74 -72 255 -154 358 -163
14 -1 25 -3 25 -4 0 -2 11 -3 25 -4 14 -1 30 -4 35 -7 6 -3 73 -5 149 -5 l140
1 -4 65 c-2 36 -4 89 -4 117 -1 29 -3 53 -6 53 -3 0 -6 39 -8 87 -1 47 -3 87
-5 89 -1 1 -47 5 -102 7 -55 3 -100 6 -100 7 0 1 -11 3 -25 6 -72 12 -116 30
-151 65 -41 40 -57 84 -63 171 -2 29 -5 58 -6 63 -1 6 -1 12 0 15 5 15 4 70
-2 70 -4 0 -4 10 1 22 4 12 5 37 1 55 -5 18 -5 33 -1 33 8 0 6 115 -3 128 -3
6 -2 21 3 34 4 13 5 33 0 46 -5 12 -5 22 -1 22 8 0 6 74 -2 97 -3 7 -2 13 2
13 4 0 6 20 5 45 -2 37 1 45 15 46 9 0 98 1 197 2 l180 2 0 198 c0 169 -2 197
-15 198 -8 0 -96 1 -195 2 -177 2 -180 2 -181 24 -1 12 -4 28 -7 37 -4 9 -3
16 1 16 8 0 7 84 -2 99 -4 5 -3 12 2 14 6 5 8 54 2 82 -1 6 -1 13 0 18 1 7 2
121 1 152 -1 13 -32 15 -216 15 l-215 0 -2 -227z"/>
<path d="M12197 10291 c-2 -10 0 -26 5 -35 6 -11 5 -16 -3 -16 -8 0 -9 -3 0
-13 6 -8 8 -17 5 -20 -9 -8 -9 -102 0 -115 4 -7 2 -12 -5 -12 -8 0 -9 -3 0
-13 6 -8 8 -16 5 -20 -8 -8 -9 -141 -1 -154 4 -7 3 -14 -3 -18 -6 -4 -8 -10
-5 -15 3 -5 -27 -9 -67 -9 -40 0 -88 0 -105 0 l-33 -1 0 -199 0 -199 88 0
c122 1 119 1 121 -27 2 -41 2 -48 -1 -103 -2 -29 -1 -55 3 -58 4 -2 4 -18 -1
-35 -5 -18 -6 -39 -1 -48 5 -9 7 -25 5 -36 -8 -41 -10 -116 -3 -121 4 -2 4
-18 -1 -35 -5 -18 -6 -39 -1 -48 5 -9 7 -25 4 -36 -5 -24 -5 -87 0 -132 2 -18
-1 -33 -5 -33 -5 0 -5 -8 0 -17 5 -10 10 -36 11 -59 2 -39 8 -79 11 -79 1 0 4
-13 6 -30 7 -43 50 -148 81 -197 42 -67 110 -126 197 -168 73 -36 196 -77 236
-78 8 0 26 -3 40 -6 71 -15 300 -23 319 -12 5 4 8 15 6 24 -3 17 -12 143 -21
306 -2 38 -7 73 -11 77 -4 4 -46 10 -93 12 -148 10 -212 24 -261 58 -29 21
-58 61 -65 90 -2 10 -7 29 -11 42 -4 12 -8 185 -9 385 -3 278 0 362 9 363 7 0
95 1 197 2 l185 2 1 198 0 197 -30 1 c-17 0 -105 1 -196 2 l-165 2 -2 190 c-1
105 -2 207 -2 228 l-1 37 -214 0 c-200 0 -214 -1 -219 -19z"/>
<path d="M3309 9866 c-2 -2 -24 -6 -49 -10 -86 -11 -250 -63 -250 -78 0 -5 -5
-8 -11 -8 -6 0 -24 -9 -40 -21 -16 -11 -29 -17 -29 -12 0 4 -4 2 -9 -6 -17
-26 -28 -1 -26 59 2 58 2 60 -24 61 -151 4 -395 -2 -400 -9 -8 -13 -7 -2314 1
-2327 5 -8 385 -13 418 -6 3 1 5 157 5 347 0 190 3 351 7 357 6 9 8 9 8 1 0
-7 15 -19 33 -28 17 -9 46 -25 62 -35 35 -20 173 -66 230 -76 62 -11 255 -14
310 -4 215 36 357 109 510 263 159 159 250 350 260 542 1 29 4 56 6 60 3 5 4
25 3 44 -14 295 -128 520 -355 697 -103 81 -260 156 -344 164 -2 0 -19 5 -37
10 -32 10 -270 23 -279 15z m251 -421 c30 -10 74 -31 98 -47 24 -15 45 -28 47
-28 15 0 112 -114 140 -165 48 -87 62 -146 60 -250 -3 -148 -54 -257 -169
-361 -101 -92 -221 -135 -359 -129 -68 3 -169 29 -197 50 -8 6 -27 17 -42 24
-27 14 -107 87 -144 132 -41 50 -81 147 -88 211 -1 10 -5 20 -7 23 -12 11 2
144 20 205 31 101 100 195 197 270 25 19 86 50 99 51 6 0 15 5 20 9 6 5 23 11
39 14 16 3 30 7 33 9 12 13 203 -1 253 -18z"/>
<path d="M5141 9848 c-52 -10 -127 -33 -167 -49 -78 -32 -214 -115 -214 -130
0 -5 -5 -9 -11 -9 -17 0 -134 -124 -179 -190 -40 -59 -99 -178 -115 -230 -3
-11 -25 -117 -31 -150 -6 -37 -6 -192 1 -250 9 -83 60 -244 86 -276 5 -6 6
-14 2 -17 -3 -4 -1 -7 6 -7 7 0 17 -13 22 -30 6 -16 15 -30 20 -30 5 0 9 -4 9
-10 0 -22 123 -155 205 -220 62 -50 227 -140 255 -140 9 0 21 -5 28 -12 7 -7
12 -9 12 -6 0 5 33 -1 95 -18 38 -11 250 -12 310 -2 82 13 78 13 93 21 6 5 16
6 21 2 5 -3 12 -1 16 5 3 5 13 10 21 10 20 0 163 68 187 88 23 21 29 12 30
-47 0 -48 18 -74 32 -50 4 5 11 6 17 3 9 -6 119 -9 143 -4 6 1 12 2 15 1 20
-7 130 -4 130 3 0 6 4 6 10 0 5 -5 26 -8 45 -6 l35 4 0 874 c0 692 -3 874 -12
875 -13 1 -241 0 -354 -1 l-61 0 -1 -61 c0 -33 -2 -63 -5 -65 -3 -3 -23 6 -45
20 -72 45 -194 93 -287 111 -79 16 -271 13 -364 -7z m318 -392 c14 -3 44 -15
68 -26 23 -11 47 -20 53 -20 5 0 10 -4 10 -9 0 -5 8 -12 18 -16 25 -8 93 -72
135 -128 64 -84 97 -182 98 -287 0 -143 -48 -253 -156 -357 -114 -110 -224
-153 -377 -148 -106 4 -228 54 -291 117 -15 15 -31 28 -35 28 -15 1 -109 137
-117 170 -1 3 -5 12 -8 20 -27 63 -33 224 -11 298 48 160 186 300 344 349 49
16 87 20 155 18 50 -2 101 -5 114 -9z"/>
<path d="M9048 9865 c-1 -2 -16 -5 -33 -8 -76 -12 -112 -21 -174 -44 -36 -14
-74 -27 -83 -30 -10 -3 -18 -9 -18 -14 0 -5 -5 -9 -10 -9 -11 0 -107 -59 -137
-83 -86 -71 -212 -217 -227 -265 -4 -12 -11 -22 -16 -22 -6 0 -16 -24 -20 -50
-1 -3 -7 -14 -14 -25 -11 -18 -22 -51 -27 -80 0 -5 -5 -17 -10 -26 -25 -48
-38 -249 -24 -374 8 -74 53 -221 88 -284 106 -198 317 -380 500 -432 26 -7 47
-17 47 -22 0 -4 4 -6 8 -3 7 4 28 0 117 -20 11 -3 76 -7 145 -9 296 -10 527
68 709 240 72 68 156 174 145 184 -5 5 -38 24 -74 44 -36 19 -86 46 -112 61
-27 14 -69 38 -95 52 -27 14 -52 29 -56 33 -4 4 -41 -25 -81 -65 -118 -116
-235 -157 -431 -148 -224 10 -365 105 -463 312 l-20 42 31 1 c185 4 617 0 626
-5 6 -4 11 -4 11 1 0 4 163 7 363 7 l363 -2 3 32 c2 17 3 47 2 66 -1 54 -1 69
0 83 6 79 -76 377 -103 377 -5 0 -8 9 -8 20 0 11 -4 20 -9 20 -5 0 -14 14 -21
30 -7 17 -16 30 -21 30 -5 0 -9 6 -9 14 0 22 -167 187 -230 228 -105 68 -222
114 -343 134 -37 7 -284 14 -289 9z m250 -411 c23 -6 42 -10 42 -7 0 2 28 -11
62 -29 64 -34 168 -129 168 -154 0 -8 4 -14 8 -14 9 0 42 -64 42 -80 0 -5 -20
-8 -45 -6 -25 2 -48 -1 -51 -6 -3 -4 -13 -5 -22 0 -21 9 -83 9 -100 -2 -6 -4
-12 -4 -12 1 0 10 -91 10 -108 -1 -7 -4 -12 -4 -12 1 0 10 -91 10 -108 -1 -7
-4 -12 -4 -12 1 0 10 -91 10 -108 -1 -7 -4 -12 -4 -12 1 0 4 -74 8 -165 7 -91
0 -165 1 -165 3 0 1 10 22 22 45 35 67 134 159 216 200 39 21 72 35 72 31 0
-3 7 0 15 7 8 7 15 10 15 7 0 -3 12 -2 28 3 41 12 182 9 230 -6z"/>
<path d="M11035 9863 c-141 -23 -300 -89 -337 -138 -14 -18 -24 13 -21 70 l2
55 -32 1 c-39 0 -367 0 -384 0 -10 -1 -13 -183 -13 -878 l0 -878 125 0 c69 0
125 4 125 8 0 5 5 5 11 2 14 -9 148 -9 157 0 4 4 7 239 8 523 0 502 1 519 22
587 37 117 121 206 226 237 56 17 241 15 291 -2 65 -21 114 -58 145 -106 37
-59 67 -189 75 -323 3 -57 6 -107 7 -110 0 -3 0 -8 -1 -11 -3 -7 -3 -162 -1
-175 1 -5 1 -26 0 -45 -6 -86 -4 -140 3 -140 4 0 3 -8 -2 -19 -6 -10 -8 -20
-6 -22 2 -3 4 -22 5 -44 0 -47 1 -244 1 -265 -2 -55 -1 -83 3 -87 6 -7 344 -5
355 1 5 4 12 2 15 -2 3 -5 17 -7 30 -5 l24 5 0 522 c0 303 -4 528 -9 539 -6
10 -6 17 0 17 5 0 6 15 1 38 -5 20 -14 64 -20 97 -16 81 -46 168 -83 238 -33
63 -150 197 -172 197 -7 0 -15 3 -17 8 -6 15 -110 62 -168 77 -3 1 -12 4 -20
8 -47 19 -271 32 -345 20z"/>
<path d="M13839 9866 c-2 -2 -32 -7 -67 -10 -72 -8 -207 -48 -261 -78 -204
-114 -305 -296 -287 -519 9 -117 45 -202 118 -284 16 -16 28 -33 28 -37 0 -5
5 -8 12 -8 6 0 21 -8 32 -19 12 -10 51 -30 87 -44 78 -31 304 -93 372 -102 27
-4 59 -9 70 -11 12 -3 42 -7 67 -9 25 -1 52 -6 60 -9 8 -3 26 -7 40 -10 75
-12 144 -62 156 -113 9 -35 -3 -82 -31 -119 -30 -39 -116 -82 -176 -88 -24 -2
-46 -5 -49 -6 -3 -1 -8 -2 -12 -1 -4 0 -34 3 -65 6 -55 5 -98 12 -98 15 0 1
-7 3 -16 5 -26 5 -92 50 -121 83 -25 28 -66 126 -60 145 1 4 -10 7 -26 8 -30
1 -347 0 -400 0 l-33 -1 5 -54 c8 -73 47 -186 85 -244 73 -112 150 -171 316
-242 11 -5 52 -16 90 -25 39 -9 81 -19 95 -22 14 -3 95 -7 180 -9 117 -2 181
2 257 16 56 10 106 21 111 24 5 3 20 7 34 10 37 6 165 72 209 107 48 38 100
89 91 89 -4 0 -2 4 4 8 13 9 66 102 58 102 -4 0 -2 6 3 13 6 6 14 26 18 42 26
109 27 193 2 326 -9 49 -58 130 -107 178 -44 43 -152 104 -245 139 -47 18
-165 48 -220 57 -41 7 -146 24 -170 29 -11 2 -33 7 -48 10 -15 2 -51 12 -80
20 -29 8 -55 15 -60 15 -12 1 -60 29 -86 51 -59 51 -37 149 44 189 100 50 287
49 379 -2 38 -21 84 -80 92 -116 4 -20 8 -39 9 -43 2 -5 3 -14 4 -21 1 -9 49
-12 214 -12 121 0 215 4 219 9 3 5 4 19 2 30 -2 12 -7 35 -9 51 -10 59 -46
143 -87 203 -30 44 -128 146 -128 134 0 -4 -4 -2 -8 4 -9 14 -123 74 -174 92
-36 13 -58 18 -108 28 -14 2 -32 7 -40 10 -16 6 -285 15 -291 10z"/>
<path d="M7695 9852 l-40 -3 1 -870 c1 -478 3 -871 5 -873 11 -10 79 -12 88
-3 6 6 11 7 11 1 0 -11 130 -11 148 0 7 4 12 4 12 -1 0 -4 37 -7 82 -6 l83 1
0 877 0 877 -175 1 c-96 1 -193 1 -215 -1z"/>
<path d="M665 8784 c-143 -23 -230 -56 -335 -127 -55 -38 -190 -175 -190 -194
0 -7 -4 -13 -8 -13 -15 0 -89 -161 -107 -230 -34 -131 -30 -304 11 -427 23
-70 71 -171 94 -195 11 -12 20 -27 20 -32 0 -13 121 -131 171 -168 63 -47 239
-128 239 -111 0 3 6 1 13 -4 6 -6 19 -11 27 -11 8 -1 33 -4 55 -8 98 -16 229
-8 331 21 64 18 188 78 211 101 8 8 18 14 23 14 15 0 146 134 176 180 16 25
32 47 35 50 13 10 80 174 88 213 0 4 1 8 2 10 12 43 17 238 7 297 -3 19 -11
55 -18 80 -17 61 -17 64 -18 74 0 5 -4 12 -9 15 -4 3 -21 33 -37 66 -17 33
-36 66 -43 73 -7 7 -13 16 -13 20 0 4 -29 37 -63 73 -75 79 -222 178 -289 195
-5 1 -10 3 -13 4 -3 1 -9 4 -15 5 -5 1 -11 3 -12 5 -3 2 -11 4 -58 15 -14 3
-52 8 -85 11 -33 3 -71 6 -85 8 -14 1 -61 -3 -105 -10z"/>
<path d="M7448 7504 c-2 -1 -21 -5 -43 -8 -150 -24 -275 -73 -405 -161 -96
-64 -194 -162 -257 -256 -47 -70 -94 -152 -99 -174 -2 -5 -12 -36 -24 -69 -19
-52 -33 -110 -46 -186 -3 -14 -5 -74 -5 -135 -1 -96 8 -163 36 -275 18 -71 80
-205 113 -242 8 -10 12 -18 8 -18 -4 0 -1 -6 6 -14 7 -8 22 -27 33 -42 27 -40
173 -185 210 -209 97 -64 211 -118 310 -148 75 -24 100 -27 220 -33 94 -5 194
2 270 20 57 13 81 19 90 25 6 3 16 6 23 7 7 2 46 18 85 37 287 136 491 395
553 702 19 93 24 224 12 304 -5 30 -10 66 -12 80 -16 106 -88 274 -163 379
-155 217 -380 359 -648 407 -31 6 -263 14 -267 9z"/>
<path d="M16566 6975 c-31 -6 -58 -12 -59 -13 -16 -7 -60 -22 -68 -22 -5 0 -9
-3 -9 -8 0 -4 -12 -13 -28 -19 -49 -22 -181 -160 -166 -175 2 -3 -2 -11 -11
-18 -8 -7 -15 -20 -15 -30 0 -9 -3 -20 -7 -24 -7 -7 -8 -12 -19 -86 -6 -42 -8
-99 -4 -110 1 -3 4 -18 6 -35 13 -86 74 -196 145 -261 47 -43 133 -89 196
-106 76 -20 247 -13 294 12 10 6 19 8 19 4 0 -4 8 -1 18 7 9 8 31 21 47 29 41
20 118 96 144 144 23 40 51 113 51 132 0 7 -38 19 -87 29 -132 25 -133 25
-133 7 0 -25 -51 -107 -80 -130 -65 -51 -182 -62 -256 -24 -48 24 -114 89
-114 112 0 9 -4 20 -10 26 -5 5 -11 23 -13 40 -2 16 -6 34 -9 39 -3 6 -4 19
-1 30 2 11 5 31 7 45 17 165 230 266 374 178 47 -28 58 -41 87 -105 27 -59 25
-57 57 -44 13 6 58 17 101 26 71 15 77 18 71 37 -3 11 -7 26 -8 32 -1 6 -12
31 -24 56 -80 165 -299 264 -496 225z"/>
<path d="M9079 6960 c-3 -13 -5 -866 -2 -876 6 -16 210 -17 215 -1 4 10 3 863
-1 877 -1 7 -211 7 -212 0z"/>
<path d="M9654 6961 c-2 -2 -4 -204 -4 -447 l0 -443 108 2 107 2 5 254 5 254
35 -39 c19 -22 53 -61 75 -88 22 -27 49 -59 61 -70 11 -12 49 -55 85 -96 35
-41 66 -77 70 -80 3 -3 30 -35 60 -71 l56 -65 79 -2 c43 0 86 1 94 3 13 4 15
61 14 440 -1 239 -4 439 -8 443 -4 4 -54 7 -110 7 l-103 0 2 -83 c0 -46 -3
-86 -7 -88 -5 -3 -5 -10 -2 -16 10 -16 11 -219 2 -224 -5 -3 -6 -10 -3 -15 10
-15 13 -89 4 -89 -9 0 -18 10 -129 140 -40 47 -82 96 -93 110 -12 14 -55 66
-97 115 -135 162 -117 149 -215 150 -48 0 -88 -2 -91 -4z"/>
<path d="M10859 6955 c-1 -5 -2 -206 -2 -446 l-2 -436 110 1 110 1 3 105 c1
58 2 110 3 115 0 6 -2 27 -4 48 -3 20 -1 40 4 43 5 3 99 5 209 5 147 0 200 3
201 12 6 46 4 164 -2 172 -4 6 -85 10 -208 9 -175 0 -201 2 -202 15 0 9 -2 31
-3 49 -1 17 2 32 8 32 7 0 8 3 1 8 -9 6 -11 38 -6 75 1 4 106 7 234 7 l234 0
1 83 c0 45 -2 89 -4 97 -3 13 -50 15 -344 15 -221 0 -340 -3 -341 -10z"/>
<path d="M11856 6960 c-2 -3 -2 -203 -2 -445 l1 -440 329 0 329 0 -1 55 c0 30
-1 73 -1 95 l-1 40 -202 -1 c-112 -1 -210 0 -219 2 -14 4 -16 41 -15 345 1
218 -3 343 -9 347 -12 8 -205 10 -209 2z"/>
<path d="M12823 6957 c-5 -8 -7 -542 -3 -542 1 0 3 -11 4 -25 4 -39 26 -101
54 -150 69 -120 198 -189 350 -185 68 1 172 23 172 36 0 4 10 9 23 13 31 7
113 90 138 137 51 101 53 116 53 429 l1 295 -107 0 c-102 1 -108 0 -109 -19 0
-12 -1 -133 -1 -271 -1 -137 -6 -267 -11 -287 -11 -45 -72 -118 -97 -118 -10
0 -21 -4 -24 -9 -3 -4 -26 -7 -51 -5 -119 10 -178 92 -178 250 0 28 3 56 7 62
4 7 2 12 -5 12 -8 0 -8 4 1 15 7 8 9 15 4 15 -5 0 -9 40 -9 90 0 49 4 90 8 90
4 0 4 8 -1 18 -4 9 -7 40 -5 67 5 92 8 90 -107 90 -56 1 -104 -3 -107 -8z"/>
<path d="M13972 6958 c-4 -4 -6 -205 -4 -447 l2 -439 348 1 347 2 0 93 0 92
-30 1 c-16 0 -123 0 -237 0 l-208 0 0 84 0 84 211 0 c116 -1 213 1 215 4 5 4
8 112 5 159 -1 15 -21 17 -212 16 -138 -1 -213 3 -217 9 -4 6 -5 44 -2 85 l5
73 233 0 233 -1 -3 96 -3 95 -338 0 c-186 0 -341 -3 -345 -7z"/>
<path d="M15005 6960 c-2 -3 -3 -48 -3 -100 0 -52 -1 -99 -2 -105 -1 -5 -2
-12 0 -15 5 -15 4 -109 -1 -132 -4 -14 -5 -29 -2 -32 6 -5 8 -239 3 -261 -1
-5 -1 -14 0 -20 1 -5 2 -58 2 -118 l0 -107 110 3 110 2 2 63 c0 34 -3 62 -7
62 -5 0 -5 5 -1 11 10 16 11 149 1 149 -5 0 -5 5 -1 12 4 7 7 57 6 113 l-2
100 38 -41 c20 -22 64 -71 97 -109 33 -38 76 -87 96 -110 20 -22 47 -53 60
-69 13 -15 33 -38 44 -50 11 -12 42 -48 69 -79 l49 -56 88 1 c58 0 89 4 90 12
4 47 3 859 -1 869 -5 14 -201 19 -210 5 -3 -4 -5 -121 -5 -261 0 -201 -2 -254
-12 -250 -7 3 -13 8 -13 12 0 3 -18 26 -40 51 -66 75 -68 78 -169 199 -20 24
-46 55 -59 70 -13 14 -37 43 -55 65 -18 21 -48 57 -69 79 l-36 42 -87 0 c-48
0 -88 -2 -90 -5z"/>
<path d="M17429 6960 c-3 -14 -5 -867 -1 -877 3 -8 93 -11 348 -11 l344 1 0
93 0 94 -117 1 c-65 0 -170 0 -234 0 -134 -1 -126 -7 -124 99 l1 65 212 0
c181 0 212 2 214 15 3 31 4 35 11 48 5 6 4 12 0 12 -5 0 -8 20 -8 45 0 25 4
45 8 45 5 0 6 4 3 9 -3 5 -101 10 -217 10 -116 1 -214 3 -218 5 -5 4 -7 112
-2 151 1 7 80 10 231 10 127 -1 231 2 231 5 5 19 4 171 0 178 -6 8 -680 11
-682 2z"/>
<path d="M2210 6813 c-273 -46 -506 -216 -628 -459 -32 -63 -66 -163 -77 -224
-21 -116 -9 -297 28 -412 21 -66 69 -168 79 -168 4 0 8 -6 8 -14 0 -29 131
-178 201 -226 19 -13 36 -27 39 -30 18 -22 193 -103 250 -116 131 -30 258 -37
354 -19 21 3 48 8 60 9 12 1 26 5 31 8 6 3 28 11 50 18 50 16 149 62 153 73 2
4 9 7 14 7 32 0 174 128 235 211 39 53 117 189 108 189 -2 0 4 20 15 44 10 24
21 60 24 80 3 20 10 53 14 73 9 41 8 192 -2 261 -14 94 -113 332 -138 332 -4
0 -8 6 -8 14 0 16 -175 196 -190 196 -4 0 -22 12 -39 26 -17 14 -31 22 -31 17
0 -4 -4 -3 -8 2 -6 9 -56 36 -72 40 -3 0 -14 5 -25 11 -11 6 -40 16 -65 23
-25 8 -58 18 -75 23 -31 10 -261 19 -305 11z"/>
<path d="M4710 6198 c-241 -60 -423 -171 -544 -334 -17 -21 -33 -41 -36 -44
-13 -11 -72 -121 -99 -187 -24 -58 -42 -119 -46 -158 -1 -5 -5 -30 -10 -55
-21 -118 -2 -306 45 -435 16 -44 74 -160 82 -163 4 -2 8 -8 8 -14 0 -14 81
-116 131 -166 76 -75 268 -200 283 -185 3 4 6 1 6 -5 0 -7 3 -11 8 -10 4 0 14
-2 22 -5 25 -10 125 -37 161 -44 47 -8 288 -9 319 -1 14 4 39 10 55 13 52 12
62 15 130 43 21 10 42 17 46 17 24 0 189 117 250 177 114 112 183 225 233 379
31 98 37 134 41 244 6 193 -41 365 -141 522 -44 69 -45 71 -124 152 -124 129
-284 216 -470 256 -71 15 -293 17 -350 3z"/>
</g>
</svg>
